<svg xmlns="http://www.w3.org/2000/svg" width="27.2" height="30" viewBox="0 0 27.2 30">
  <g id="files" transform="translate(-2 -1)">
    <path id="パス_1151" data-name="パス 1151" d="M17.4,2H11.8A2.8,2.8,0,0,0,9,4.8V20.2A2.8,2.8,0,0,0,11.8,23H23a2.8,2.8,0,0,0,2.8-2.8V10.4" transform="translate(2.4 0)" fill="none" stroke="#303133" stroke-linecap="round" stroke-linejoin="round" stroke-width="2"/>
    <path id="パス_1152" data-name="パス 1152" d="M17.388,2.988A3.36,3.36,0,0,0,15,2V9a1.4,1.4,0,0,0,1.4,1.4h7a3.36,3.36,0,0,0-.988-2.388Z" transform="translate(4.8 0)" fill="none" stroke="#303133" stroke-linecap="round" stroke-linejoin="round" stroke-width="2"/>
    <path id="パス_1153" data-name="パス 1153" d="M5.8,7A2.8,2.8,0,0,0,3,9.8V25.2A2.8,2.8,0,0,0,5.8,28H17a2.8,2.8,0,0,0,2.425-1.4" transform="translate(0 2)" fill="none" stroke="#303133" stroke-linecap="round" stroke-linejoin="round" stroke-width="2"/>
  </g>
</svg>
