<svg xmlns="http://www.w3.org/2000/svg" width="160" height="160" viewBox="0 0 160 160">
  <g id="group_2089" transform="translate(-370 -2794)">
    <rect id="bg" width="160" height="160" rx="80" transform="translate(370 2794)" fill="#eff6fa"/>
    <g id="icon" transform="translate(411 2830.598)">
      <rect id="area" width="90" height="90" transform="translate(-6 -1.598)" fill="none"/>
      <g id="group_2076" transform="translate(-2.043 0.195)">
        <path id="path_1195" d="M297.182,91.58V72.833c0-5.249,5.914-7.033,8.227-1.543,2.454,5.825,6.958,18.6,7.145,26.664s3.006,12,6.006,15l5.8,5.805" transform="translate(-243.107 -56.546)" fill="none" stroke="#3072bf" stroke-linecap="round" stroke-linejoin="round" stroke-width="3"/>
        <path id="path_1196" d="M257.814,408.909c2.453,1.051,4.346,1.8,5.711,3.164l6.489,6.489" transform="translate(-211.068 -334.031)" fill="none" stroke="#3072bf" stroke-linecap="round" stroke-linejoin="round" stroke-width="3"/>
        <path id="path_1197" d="M52.828,32.042,28.971,8.185a4.9,4.9,0,0,0-6.929,6.929l-3.464-3.464a4.9,4.9,0,0,0-6.929,6.929l3.464,3.464a4.9,4.9,0,0,0-6.929,6.929l6.205,6.205a4.388,4.388,0,1,0-6.205,6.205L22.7,55.892" transform="translate(-6.75 -6.75)" fill="none" stroke="#3072bf" stroke-linecap="round" stroke-linejoin="round" stroke-width="3"/>
        <line id="line_561" x2="12.709" y2="12.709" transform="translate(7.64 28.427)" fill="none" stroke="#3072bf" stroke-linecap="round" stroke-linejoin="round" stroke-width="3"/>
        <line id="line_562" x2="18.914" y2="18.914" transform="translate(8.364 15.293)" fill="none" stroke="#3072bf" stroke-linecap="round" stroke-linejoin="round" stroke-width="3"/>
        <line id="line_563" x2="18.914" y2="18.914" transform="translate(15.292 8.364)" fill="none" stroke="#3072bf" stroke-linecap="round" stroke-linejoin="round" stroke-width="3"/>
        <line id="line_564" x1="7.628" y2="7.628" transform="translate(36.169 47.436)" fill="none" stroke="#3072bf" stroke-linecap="round" stroke-linejoin="round" stroke-width="3"/>
        <line id="line_565" x1="8.282" y2="8.282" transform="translate(40.417 51.029)" fill="none" stroke="#3072bf" stroke-linecap="round" stroke-linejoin="round" stroke-width="3"/>
        <line id="line_566" x1="4.793" y2="4.793" transform="translate(44.349 59.08)" fill="none" stroke="#3072bf" stroke-linecap="round" stroke-linejoin="round" stroke-width="3"/>
        <path id="path_1198" d="M81.258,278.75l1.227-1.227c3.647-3.647,3.7-6.571,3.7-6.571s3.654,1.011,10.45-5.785l10.606-10.606a2.69,2.69,0,1,0-3.8-3.8l3.8-3.8a3,3,0,0,0-4.247-4.248l.925-.925a3,3,0,1,0-4.248-4.248l-1.579,1.579a3,3,0,0,0-4.248-4.248l-8.878,8.878c-2.131,2.131-3.8,1.152-3.8-1.687,0-.791,0-1.66,0-2.551,0-3.218-3.876-4.518-5.294-1.152a48.076,48.076,0,0,0-2.9,9.748c-.567,3-.178,6.646.16,10.288a12.742,12.742,0,0,0-7.507,3.823l-.454.454" transform="translate(-54.295 -191.677)" fill="none" stroke="#3072bf" stroke-linecap="round" stroke-linejoin="round" stroke-width="3"/>
      </g>
    </g>
  </g>
</svg>
