<svg xmlns="http://www.w3.org/2000/svg" width="36" height="36" viewBox="0 0 36 36"><path fill="#1877F2" d="M36 18a18 18 0 1 0-20.813 17.781V23.203h-4.57V18h4.57v-3.966c0-4.512 2.687-7.003 6.798-7.003 1.97 0 4.03.352 4.03.352v4.43h-2.27c-2.237 0-2.934 1.388-2.934 2.812V18h4.992l-.798 5.203h-4.194v12.578A18.004 18.004 0 0 0 36 18"/><path fill="#fff" d="m25.005 23.203.798-5.203h-4.992v-3.375c0-1.424.697-2.812 2.934-2.812h2.27v-4.43S24.001 7.03 22.03 7.03c-4.11 0-6.797 2.491-6.797 7.003V18h-4.57v5.203h4.57v12.578a18.146 18.146 0 0 0 5.626 0V23.203z"/></svg>
